<svg xmlns="http://www.w3.org/2000/svg" viewBox="0 0 1024 1024" role="img" aria-label="OSII">
  <defs>
    <linearGradient id="background" x1="0" y1="0" x2="1" y2="1">
      <stop offset="0" stop-color="#214c4d"/>
      <stop offset="1" stop-color="#102f33"/>
    </linearGradient>
  </defs>
  <rect width="1024" height="1024" rx="220" fill="url(#background)"/>
  <path d="M272 302c0-44 36-80 80-80h320c44 0 80 36 80 80v420c0 44-36 80-80 80H352c-44 0-80-36-80-80V302Z" fill="#f4f4eb"/>
  <path d="M352 222h320c44 0 80 36 80 80v58H272v-58c0-44 36-80 80-80Z" fill="#e49a57"/>
  <circle cx="363" cy="291" r="21" fill="#173e3e"/>
  <circle cx="433" cy="291" r="21" fill="#173e3e"/>
  <path d="M370 474h284M370 564h284M370 654h188" fill="none" stroke="#2e6863" stroke-linecap="round" stroke-width="40"/>
  <path d="m630 666 55 55 112-133" fill="none" stroke="#e49a57" stroke-linecap="round" stroke-linejoin="round" stroke-width="48"/>
</svg>
